<svg xmlns="http://www.w3.org/2000/svg" width="40" height="40" viewBox="0 0 40 40">
    <g fill="none" fill-rule="evenodd" stroke="#7A5548" stroke-linecap="round" stroke-linejoin="round">
        <circle cx="15.83" cy="4.167" r="3.333"/>
        <path d="M7.5 29.167a3.333 3.333 0 0 1-6.667 0c0-1.315 1.699-3.725 2.667-5a.833.833 0 0 1 1.333 0c.964 1.275 2.667 3.685 2.667 5zM25.833 39.167v-5c0-.92.747-1.667 1.667-1.667h6.667l.65-2.605a.418.418 0 0 1 .705-.188l3.015 3.126a1.852 1.852 0 0 1 .138 2.655l-.333.334a1.667 1.667 0 0 1-1.924.313l-.585-.302"/>
        <path d="M29.163 39.167V37.5h5v1.667M22.497 23.333l9.166 9.167M19.163 25v-7.5M12.5 17.5v19.167a2.5 2.5 0 0 0 2.5 2.5h1.667a2.5 2.5 0 0 0 2.5-2.5v-12.5a1.667 1.667 0 0 0 3.333 0l.013-8.1a5.877 5.877 0 0 0-5.846-5.234h-1.232a5.873 5.873 0 0 0-5.845 5.234 2.547 2.547 0 0 1-2.533 2.266H3.333a1.667 1.667 0 0 0 0 3.334h3.724a5.833 5.833 0 0 0 2.375-.5"/>
    </g>
</svg>
