<svg xmlns="http://www.w3.org/2000/svg" width="103" height="78" viewBox="0 0 103 78">
    <g fill="none" fill-rule="evenodd" stroke="#7A5548" stroke-linecap="round" stroke-linejoin="round" stroke-width="4" transform="translate(-2 -1)">
        <path d="M96.394 43.267a3.003 3.003 0 0 0-2.769-2.156h-80.25a3.003 3.003 0 0 0-2.769 2.156L4.391 68.044a6.606 6.606 0 0 0 1.093 6.09 6.652 6.652 0 0 0 5.662 2.533h84.708a6.652 6.652 0 0 0 5.662-2.533 6.606 6.606 0 0 0 1.093-6.09l-6.215-24.777zM91.396 32.249a12.942 12.942 0 0 0-3.17-9.916 13.026 13.026 0 0 0-9.46-4.4 12.635 12.635 0 0 0-5.823 1.418C71.149 10.056 62.99 3.34 53.496 3.34c-9.495 0-17.654 6.717-19.448 16.012a12.577 12.577 0 0 0-5.796-1.418c-6.99 0-12.648 5.391-12.648 14.391"/>
        <rect width="40.125" height="8.889" x="33.438" y="54.444" rx=".5"/>
    </g>
</svg>
