<svg xmlns="http://www.w3.org/2000/svg" width="98" height="74" viewBox="0 0 98 74">
    <g fill="none" fill-rule="evenodd" stroke="#5CCCD8" stroke-linecap="round" stroke-linejoin="round" stroke-width="3" transform="translate(2 2)">
        <path d="M87.4 38.09a2.84 2.84 0 0 0-2.62-2.039H8.868a2.84 2.84 0 0 0-2.619 2.04L.37 61.528a6.249 6.249 0 0 0 1.034 5.76 6.292 6.292 0 0 0 5.356 2.396h80.13a6.292 6.292 0 0 0 5.355-2.396 6.249 6.249 0 0 0 1.033-5.76L87.4 38.09zM82.672 27.668a12.243 12.243 0 0 0-2.999-9.38 12.322 12.322 0 0 0-8.949-4.162 11.952 11.952 0 0 0-5.508 1.341C63.52 6.675 55.802.321 46.82.321c-8.981 0-16.7 6.354-18.396 15.146a11.897 11.897 0 0 0-5.482-1.34c-6.613 0-11.965 5.099-11.965 13.612"/>
        <rect width="37.956" height="8.408" x="27.846" y="48.664" rx=".5"/>
    </g>
</svg>
