<svg xmlns="http://www.w3.org/2000/svg" width="190" height="25" viewBox="0 0 190 25">
    <g fill="#5CCCD8" fill-rule="nonzero">
        <path d="M13 19.832L5.266 24.52l2.05-8.79L.52 9.812l8.964-.761L13 .789l3.516 8.262 8.964.761-6.796 5.918 2.05 8.79zM54 19.832l-7.734 4.688 2.05-8.79-6.796-5.918 8.964-.761L54 .789l3.516 8.262 8.964.761-6.796 5.918 2.05 8.79zM95 19.832l-7.734 4.688 2.05-8.79-6.796-5.918 8.964-.761L95 .789l3.516 8.262 8.964.761-6.796 5.918 2.05 8.79zM136 19.832l-7.734 4.688 2.05-8.79-6.796-5.918 8.964-.761L136 .789l3.516 8.262 8.964.761-6.796 5.918 2.05 8.79zM177 19.832l-7.734 4.688 2.05-8.79-6.796-5.918 8.964-.761L177 .789l3.516 8.262 8.964.761-6.796 5.918 2.05 8.79z"/>
    </g>
</svg>
