<svg xmlns="http://www.w3.org/2000/svg" width="77" height="77" viewBox="0 0 77 77">
    <g fill="none" fill-rule="evenodd" stroke="#F47E54" stroke-linecap="round" stroke-linejoin="round" stroke-width="3" transform="translate(2 1)">
        <path d="M10.705 45.475L.222 63.55a1.648 1.648 0 0 0 .07 1.769 1.654 1.654 0 0 0 1.635.687l9.258-1.565 3.223 8.843a1.653 1.653 0 0 0 2.976.281l9.002-15.208M62.03 45.475L72.514 63.55a1.648 1.648 0 0 1-.071 1.769 1.654 1.654 0 0 1-1.635.687l-9.257-1.565-3.224 8.843a1.653 1.653 0 0 1-2.975.281l-9.003-15.208"/>
        <ellipse cx="36.315" cy="30.337" rx="29.755" ry="29.71"/>
        <path d="M38.259 15.017l4.238 8.727h8.266a2.021 2.021 0 1 1 1.412 3.522l-7.162 7.048 3.968 9.115a2.157 2.157 0 0 1-.569 2.453 2.165 2.165 0 0 1-2.51.247l-9.587-5.394-9.588 5.394a2.165 2.165 0 0 1-2.51-.247 2.157 2.157 0 0 1-.568-2.453l3.967-9.115-7.16-7.047a2.018 2.018 0 0 1 1.418-3.53h8.265l4.245-8.72a2.186 2.186 0 0 1 3.875 0z"/>
    </g>
</svg>
