<svg xmlns="http://www.w3.org/2000/svg" width="40" height="40" viewBox="0 0 40 40">
    <g fill="none" fill-rule="evenodd" stroke="#F47E54" stroke-linecap="round" stroke-linejoin="round">
        <path d="M23 27.238a2.813 2.813 0 0 1-2.5 1.667h-.015c-.722 0-1.44.098-2.135.293a1.23 1.23 0 0 0-.692 1.899 7.408 7.408 0 0 0 6.117 3.071c4 0 7.895-2.945 7.895-6.58a4.115 4.115 0 0 0-.355-1.635A3.363 3.363 0 0 0 28 23.88a6.333 6.333 0 0 0-5 3.358zM15.167.833l.12 1.065c1.36 12.019 11.79 11.667 4.945 21.167-3.992 5.537-8.364 2.385-11.809 2.385a6.927 6.927 0 0 0-1.806.232C2.78 26.707.833 31.667.833 38.257v.91"/>
        <path d="M6.268 39.167l-.026-1.06c0-.064-.594-6.359 2.905-6.809 1-.13 2.088 1.11 2.806 1.85a12.088 12.088 0 0 0 9.424 4.5 16.573 16.573 0 0 0 13.563-6.285 21.268 21.268 0 0 0 4.227-12.946c0-8.177-4.07-13.887-9.897-13.887a5.46 5.46 0 0 0-4.145 2c-.715.71-1.153 1.112-1.85 1.112-1.4 0-2.362-3.542-2.572-5.937l-.075-.872"/>
    </g>
</svg>
