<svg xmlns="http://www.w3.org/2000/svg" width="91" height="78" viewBox="0 0 91 78">
    <g fill="none" fill-rule="evenodd" stroke="#F47E54" stroke-linecap="round" stroke-linejoin="round" stroke-width="3" transform="translate(2 1)">
        <path d="M44.816 74.78a1.823 1.823 0 0 1-2.647 0L6.43 37.791c-6.67-6.574-8.335-16.73-4.115-25.107A22.101 22.101 0 0 1 18.46.94a22.03 22.03 0 0 1 18.988 6.095l6.052 5.544 6.052-5.544A22.026 22.026 0 0 1 68.538.939a22.097 22.097 0 0 1 16.143 11.745c4.22 8.376 2.557 18.531-4.111 25.107l-35.754 36.99z"/>
        <path d="M47.135 38.612a4.51 4.51 0 0 0-3.639-1.85 4.51 4.51 0 0 0-3.639 1.85l-6.892 9.447a4.757 4.757 0 0 0-.378 4.845 4.613 4.613 0 0 0 4.025 2.591H50.41a4.64 4.64 0 0 0 4.024-2.592 4.68 4.68 0 0 0-.39-4.787l-6.91-9.504z"/>
        <ellipse cx="29.3" cy="34.189" rx="4.713" ry="4.735"/>
        <ellipse cx="43.439" cy="24.719" rx="4.713" ry="4.735"/>
        <ellipse cx="57.702" cy="34.188" rx="4.713" ry="4.735" transform="rotate(-4.97 57.702 34.188)"/>
    </g>
</svg>
