<svg xmlns="http://www.w3.org/2000/svg" width="38" height="39" viewBox="0 0 38 39">
    <g fill="none" fill-rule="evenodd" stroke="#5CCCD8" stroke-linecap="round" stroke-linejoin="round">
        <path d="M24.508.398l3.656 3.693c2.054 2.076.633 6.934-3.24 10.842-3.874 3.907-7.362 4.167-9.492 2.016l-3.015-3.053"/>
        <path d="M16.885 17.94L2.003 32.945a2.746 2.746 0 0 0-.738 2.652 2.714 2.714 0 0 0 1.927 1.95 2.682 2.682 0 0 0 2.627-.743l11.417-11.531c7.05 3.222 21.609-11.637 19.309-18.598-.9-2.744-4.662-3.913-6.54-2.011l-1.004 1.01M21.239 17.656l-8.184-8.258M24.278 15.558l-8.91-8.967M26.672 12.864L17.911 4.02M28.508 9.582l-7.816-7.9"/>
    </g>
</svg>
