<svg xmlns="http://www.w3.org/2000/svg" width="49" height="37" viewBox="0 0 49 37">
    <g fill="none" fill-rule="evenodd" stroke="#5CCCD8" stroke-linecap="round" stroke-linejoin="round" stroke-width="2" transform="translate(1 1)">
        <path d="M43.468 19.045a1.414 1.414 0 0 0-1.302-1.02H4.41a1.414 1.414 0 0 0-1.303 1.02L.184 30.765a3.138 3.138 0 0 0 .514 2.88 3.122 3.122 0 0 0 2.664 1.197h39.853a3.122 3.122 0 0 0 2.663-1.198 3.138 3.138 0 0 0 .514-2.88l-2.924-11.719zM41.117 13.834a6.143 6.143 0 0 0-1.491-4.69 6.115 6.115 0 0 0-4.451-2.08 5.92 5.92 0 0 0-2.74.67A9.322 9.322 0 0 0 23.287.16a9.322 9.322 0 0 0-9.15 7.574 5.892 5.892 0 0 0-2.726-.67c-3.289 0-5.95 2.549-5.95 6.806"/>
        <rect width="18.878" height="4.204" x="13.849" y="24.332" rx=".5"/>
    </g>
</svg>
