<svg xmlns="http://www.w3.org/2000/svg" width="112" height="78" viewBox="0 0 112 78">
    <g fill="none" fill-rule="evenodd" stroke="#5CCCD8" stroke-linecap="round" stroke-linejoin="round" stroke-width="3">
        <path d="M74.75 34.03h-.005M76.82 75.5a5 5 0 0 1-4.2.125L37.79 60.76a5 5 0 0 1-3.04-4.6V22.215a5 5 0 0 1 2.885-4.53L70.29 2.445a5 5 0 0 1 3.97-.11l32.345 12.94a5 5 0 0 1 3.145 4.64V55.94a5 5 0 0 1-2.765 4.47L76.82 75.5zM74.75 34.03L108.81 17"/>
        <path d="M35.64 19.365L74.745 34.03v41.985M90.905 25.95l-36.92-15.895M2.25 43.38l.235.105 19.765 9.13M10.41 29.65l11.84 5.465M16.615 15.015l5.635 2.6"/>
    </g>
</svg>
