<svg xmlns="http://www.w3.org/2000/svg" width="44" height="40" viewBox="0 0 44 40">
    <g fill="none" fill-rule="evenodd" stroke="#DA9BB6" stroke-linecap="round" stroke-linejoin="round">
        <path d="M36.364 39.09l-2.435-7.3a3.624 3.624 0 0 0 3.344-3.608 5.455 5.455 0 0 0 5.454-5.455V20a5.444 5.444 0 0 0-4.545-5.36v-.095a6.364 6.364 0 0 0-6.364-6.363A7.273 7.273 0 0 0 24.545.909h-5.454a7.273 7.273 0 0 0-7.273 7.273 6.364 6.364 0 0 0-6.363 6.363h-.11a4.545 4.545 0 0 0 0 9.091h9.2a4.545 4.545 0 0 0 4.546 4.546h8.182l3.636 10.909M14.545 23.636a4.545 4.545 0 0 1 4.546-4.545M24.545 19.09a4.545 4.545 0 0 1 9.091 0"/>
        <path d="M25.455 6.364a4.545 4.545 0 0 1-4.546 4.545h-2.727a4.545 4.545 0 0 0-4.546 4.546M11.818 8.182a6.364 6.364 0 0 1 5.307 2.853M38.182 20.91a2.727 2.727 0 0 1-2.727 2.726"/>
    </g>
</svg>
