<svg xmlns="http://www.w3.org/2000/svg" width="28" height="22" viewBox="0 0 28 22">
    <path fill="#FFF" fill-rule="nonzero" d="M27.12 2.688a11.33 11.33 0 0 1-2.712 2.795 15.361 15.361 0 0 1-.62 5.047 15.7 15.7 0 0 1-1.933 4.16 16.354 16.354 0 0 1-3.088 3.525c-1.194 1.021-2.634 1.836-4.32 2.444-1.685.608-3.487.912-5.407.912-3.024 0-5.792-.809-8.303-2.427.39.045.826.067 1.305.067 2.512 0 4.75-.77 6.714-2.31a5.272 5.272 0 0 1-3.148-1.08A5.29 5.29 0 0 1 3.7 13.15a6.85 6.85 0 0 0 1.021.083c.48 0 .954-.061 1.423-.184a5.32 5.32 0 0 1-3.105-1.866c-.82-.988-1.231-2.135-1.231-3.44v-.068a5.365 5.365 0 0 0 2.444.687 5.401 5.401 0 0 1-1.758-1.925 5.269 5.269 0 0 1-.652-2.579c0-.982.245-1.891.736-2.728a15.329 15.329 0 0 0 4.93 3.992 15.067 15.067 0 0 0 6.22 1.666 6.006 6.006 0 0 1-.134-1.239c0-1.495.527-2.77 1.582-3.825C16.23.67 17.506.143 19 .143c1.563 0 2.88.57 3.951 1.707 1.217-.234 2.36-.67 3.432-1.305-.413 1.283-1.205 2.276-2.377 2.98a10.774 10.774 0 0 0 3.114-.837z"/>
</svg>
